<svg xmlns="http://www.w3.org/2000/svg" width="1040" height="560" viewBox="0 0 1040 560">
<rect width="100%" height="100%" fill="#ffffff"/>
<text x="82" y="28" font-family="Arial, sans-serif" font-size="20" font-weight="700">fed_simple_parent_switch_fed-pps-off-repeated 20260712-191958-experiment run01 RSS</text>
<text x="82" y="48" font-family="Arial, sans-serif" font-size="12" fill="#555">ED-to-parent ping reply RSS at ED, model-derived at ping event positions</text>
<line x1="82" x2="1012" y1="486.00" y2="486.00" stroke="#e5e5e5"/>
<text x="72" y="490.00" text-anchor="end" font-family="Arial, sans-serif" font-size="11" fill="#555">-106</text>
<line x1="82" x2="1012" y1="378.00" y2="378.00" stroke="#e5e5e5"/>
<text x="72" y="382.00" text-anchor="end" font-family="Arial, sans-serif" font-size="11" fill="#555">-89</text>
<line x1="82" x2="1012" y1="270.00" y2="270.00" stroke="#e5e5e5"/>
<text x="72" y="274.00" text-anchor="end" font-family="Arial, sans-serif" font-size="11" fill="#555">-73</text>
<line x1="82" x2="1012" y1="162.00" y2="162.00" stroke="#e5e5e5"/>
<text x="72" y="166.00" text-anchor="end" font-family="Arial, sans-serif" font-size="11" fill="#555">-56</text>
<line x1="82" x2="1012" y1="54.00" y2="54.00" stroke="#e5e5e5"/>
<text x="72" y="58.00" text-anchor="end" font-family="Arial, sans-serif" font-size="11" fill="#555">-40</text>
<line x1="82.00" x2="82.00" y1="54" y2="486" stroke="#f0f0f0"/>
<text x="82.00" y="508" text-anchor="middle" font-family="Arial, sans-serif" font-size="11" fill="#555">481</text>
<line x1="314.50" x2="314.50" y1="54" y2="486" stroke="#f0f0f0"/>
<text x="314.50" y="508" text-anchor="middle" font-family="Arial, sans-serif" font-size="11" fill="#555">568</text>
<line x1="547.00" x2="547.00" y1="54" y2="486" stroke="#f0f0f0"/>
<text x="547.00" y="508" text-anchor="middle" font-family="Arial, sans-serif" font-size="11" fill="#555">656</text>
<line x1="779.50" x2="779.50" y1="54" y2="486" stroke="#f0f0f0"/>
<text x="779.50" y="508" text-anchor="middle" font-family="Arial, sans-serif" font-size="11" fill="#555">744</text>
<line x1="1012.00" x2="1012.00" y1="54" y2="486" stroke="#f0f0f0"/>
<text x="1012.00" y="508" text-anchor="middle" font-family="Arial, sans-serif" font-size="11" fill="#555">831</text>
<rect x="82" y="54" width="930" height="432" fill="none" stroke="#222"/>
<text x="20" y="270.00" transform="rotate(-90 20,270.00)" text-anchor="middle" font-family="Arial, sans-serif" font-size="13">RSS (dBm)</text>
<text x="547.00" y="540" text-anchor="middle" font-family="Arial, sans-serif" font-size="13">Simulation time (s)</text>
<circle cx="82.00" cy="357.65" r="2.1" fill="#d62728" fill-opacity="0.76"/>
<circle cx="84.66" cy="341.34" r="2.1" fill="#d62728" fill-opacity="0.76"/>
<circle cx="87.31" cy="322.30" r="2.1" fill="#d62728" fill-opacity="0.76"/>
<circle cx="89.97" cy="299.53" r="2.1" fill="#d62728" fill-opacity="0.76"/>
<circle cx="92.63" cy="271.45" r="2.1" fill="#d62728" fill-opacity="0.76"/>
<circle cx="95.29" cy="235.78" r="2.1" fill="#d62728" fill-opacity="0.76"/>
<circle cx="97.94" cy="191.89" r="2.1" fill="#d62728" fill-opacity="0.76"/>
<circle cx="100.60" cy="163.03" r="2.1" fill="#d62728" fill-opacity="0.76"/>
<circle cx="103.26" cy="191.89" r="2.1" fill="#d62728" fill-opacity="0.76"/>
<circle cx="105.91" cy="235.78" r="2.1" fill="#d62728" fill-opacity="0.76"/>
<circle cx="108.57" cy="271.45" r="2.1" fill="#d62728" fill-opacity="0.76"/>
<circle cx="111.23" cy="299.53" r="2.1" fill="#d62728" fill-opacity="0.76"/>
<circle cx="113.89" cy="322.30" r="2.1" fill="#d62728" fill-opacity="0.76"/>
<circle cx="116.54" cy="341.34" r="2.1" fill="#d62728" fill-opacity="0.76"/>
<circle cx="119.20" cy="357.65" r="2.1" fill="#d62728" fill-opacity="0.76"/>
<circle cx="121.86" cy="371.89" r="2.1" fill="#d62728" fill-opacity="0.76"/>
<circle cx="132.49" cy="415.60" r="2.1" fill="#d62728" fill-opacity="0.76"/>
<circle cx="135.14" cy="424.28" r="2.1" fill="#d62728" fill-opacity="0.76"/>
<circle cx="145.77" cy="453.45" r="2.1" fill="#d62728" fill-opacity="0.76"/>
<circle cx="148.43" cy="459.68" r="2.1" fill="#d62728" fill-opacity="0.76"/>
<circle cx="182.97" cy="357.65" r="2.1" fill="#d62728" fill-opacity="0.76"/>
<circle cx="185.63" cy="357.65" r="2.1" fill="#d62728" fill-opacity="0.76"/>
<circle cx="188.29" cy="357.65" r="2.1" fill="#d62728" fill-opacity="0.76"/>
<circle cx="190.94" cy="357.65" r="2.1" fill="#d62728" fill-opacity="0.76"/>
<circle cx="193.60" cy="357.65" r="2.1" fill="#d62728" fill-opacity="0.76"/>
<circle cx="196.26" cy="357.65" r="2.1" fill="#d62728" fill-opacity="0.76"/>
<circle cx="198.91" cy="357.65" r="2.1" fill="#d62728" fill-opacity="0.76"/>
<circle cx="201.57" cy="357.65" r="2.1" fill="#d62728" fill-opacity="0.76"/>
<circle cx="204.23" cy="357.65" r="2.1" fill="#d62728" fill-opacity="0.76"/>
<circle cx="206.89" cy="357.65" r="2.1" fill="#d62728" fill-opacity="0.76"/>
<circle cx="209.54" cy="357.65" r="2.1" fill="#d62728" fill-opacity="0.76"/>
<circle cx="212.20" cy="357.65" r="2.1" fill="#d62728" fill-opacity="0.76"/>
<circle cx="214.86" cy="357.65" r="2.1" fill="#d62728" fill-opacity="0.76"/>
<circle cx="217.51" cy="357.65" r="2.1" fill="#d62728" fill-opacity="0.76"/>
<circle cx="220.17" cy="357.65" r="2.1" fill="#d62728" fill-opacity="0.76"/>
<circle cx="222.83" cy="357.65" r="2.1" fill="#d62728" fill-opacity="0.76"/>
<circle cx="225.49" cy="357.65" r="2.1" fill="#d62728" fill-opacity="0.76"/>
<circle cx="228.14" cy="357.65" r="2.1" fill="#d62728" fill-opacity="0.76"/>
<circle cx="230.80" cy="357.65" r="2.1" fill="#d62728" fill-opacity="0.76"/>
<circle cx="233.46" cy="357.65" r="2.1" fill="#d62728" fill-opacity="0.76"/>
<circle cx="236.11" cy="357.65" r="2.1" fill="#d62728" fill-opacity="0.76"/>
<circle cx="238.77" cy="357.65" r="2.1" fill="#d62728" fill-opacity="0.76"/>
<circle cx="241.43" cy="357.65" r="2.1" fill="#d62728" fill-opacity="0.76"/>
<circle cx="244.09" cy="357.65" r="2.1" fill="#d62728" fill-opacity="0.76"/>
<circle cx="246.74" cy="357.65" r="2.1" fill="#d62728" fill-opacity="0.76"/>
<circle cx="249.40" cy="357.65" r="2.1" fill="#d62728" fill-opacity="0.76"/>
<circle cx="252.06" cy="357.65" r="2.1" fill="#d62728" fill-opacity="0.76"/>
<circle cx="254.71" cy="357.65" r="2.1" fill="#d62728" fill-opacity="0.76"/>
<circle cx="257.37" cy="357.65" r="2.1" fill="#d62728" fill-opacity="0.76"/>
<circle cx="260.03" cy="357.65" r="2.1" fill="#d62728" fill-opacity="0.76"/>
<circle cx="262.69" cy="357.65" r="2.1" fill="#d62728" fill-opacity="0.76"/>
<circle cx="265.34" cy="357.65" r="2.1" fill="#d62728" fill-opacity="0.76"/>
<circle cx="268.00" cy="357.65" r="2.1" fill="#d62728" fill-opacity="0.76"/>
<circle cx="270.66" cy="357.65" r="2.1" fill="#d62728" fill-opacity="0.76"/>
<circle cx="273.31" cy="357.65" r="2.1" fill="#d62728" fill-opacity="0.76"/>
<circle cx="275.97" cy="357.65" r="2.1" fill="#d62728" fill-opacity="0.76"/>
<circle cx="278.63" cy="357.65" r="2.1" fill="#d62728" fill-opacity="0.76"/>
<circle cx="281.29" cy="357.65" r="2.1" fill="#d62728" fill-opacity="0.76"/>
<circle cx="283.94" cy="357.65" r="2.1" fill="#d62728" fill-opacity="0.76"/>
<circle cx="286.60" cy="357.65" r="2.1" fill="#d62728" fill-opacity="0.76"/>
<circle cx="289.26" cy="357.65" r="2.1" fill="#d62728" fill-opacity="0.76"/>
<circle cx="291.91" cy="357.65" r="2.1" fill="#d62728" fill-opacity="0.76"/>
<circle cx="294.57" cy="357.65" r="2.1" fill="#d62728" fill-opacity="0.76"/>
<circle cx="297.23" cy="357.65" r="2.1" fill="#d62728" fill-opacity="0.76"/>
<circle cx="299.89" cy="357.65" r="2.1" fill="#d62728" fill-opacity="0.76"/>
<circle cx="302.54" cy="357.65" r="2.1" fill="#d62728" fill-opacity="0.76"/>
<circle cx="305.20" cy="357.65" r="2.1" fill="#d62728" fill-opacity="0.76"/>
<circle cx="307.86" cy="357.65" r="2.1" fill="#d62728" fill-opacity="0.76"/>
<circle cx="310.51" cy="357.65" r="2.1" fill="#d62728" fill-opacity="0.76"/>
<circle cx="313.17" cy="357.65" r="2.1" fill="#d62728" fill-opacity="0.76"/>
<circle cx="315.83" cy="357.65" r="2.1" fill="#d62728" fill-opacity="0.76"/>
<circle cx="318.49" cy="357.65" r="2.1" fill="#d62728" fill-opacity="0.76"/>
<circle cx="321.14" cy="357.65" r="2.1" fill="#d62728" fill-opacity="0.76"/>
<circle cx="323.80" cy="357.65" r="2.1" fill="#d62728" fill-opacity="0.76"/>
<circle cx="326.46" cy="357.65" r="2.1" fill="#d62728" fill-opacity="0.76"/>
<circle cx="329.11" cy="357.65" r="2.1" fill="#d62728" fill-opacity="0.76"/>
<circle cx="331.77" cy="357.65" r="2.1" fill="#d62728" fill-opacity="0.76"/>
<circle cx="334.43" cy="357.65" r="2.1" fill="#d62728" fill-opacity="0.76"/>
<circle cx="337.09" cy="357.65" r="2.1" fill="#d62728" fill-opacity="0.76"/>
<circle cx="339.74" cy="357.65" r="2.1" fill="#d62728" fill-opacity="0.76"/>
<circle cx="342.40" cy="357.65" r="2.1" fill="#d62728" fill-opacity="0.76"/>
<circle cx="345.06" cy="357.65" r="2.1" fill="#d62728" fill-opacity="0.76"/>
<circle cx="347.71" cy="357.65" r="2.1" fill="#d62728" fill-opacity="0.76"/>
<circle cx="350.37" cy="357.65" r="2.1" fill="#d62728" fill-opacity="0.76"/>
<circle cx="353.03" cy="357.65" r="2.1" fill="#d62728" fill-opacity="0.76"/>
<circle cx="355.69" cy="357.65" r="2.1" fill="#d62728" fill-opacity="0.76"/>
<circle cx="358.34" cy="357.65" r="2.1" fill="#d62728" fill-opacity="0.76"/>
<circle cx="361.00" cy="357.65" r="2.1" fill="#d62728" fill-opacity="0.76"/>
<circle cx="363.66" cy="357.65" r="2.1" fill="#d62728" fill-opacity="0.76"/>
<circle cx="366.31" cy="357.65" r="2.1" fill="#d62728" fill-opacity="0.76"/>
<circle cx="368.97" cy="357.65" r="2.1" fill="#d62728" fill-opacity="0.76"/>
<circle cx="371.63" cy="357.65" r="2.1" fill="#d62728" fill-opacity="0.76"/>
<circle cx="374.29" cy="357.65" r="2.1" fill="#d62728" fill-opacity="0.76"/>
<circle cx="376.94" cy="357.65" r="2.1" fill="#d62728" fill-opacity="0.76"/>
<circle cx="379.60" cy="357.65" r="2.1" fill="#d62728" fill-opacity="0.76"/>
<circle cx="382.26" cy="357.65" r="2.1" fill="#d62728" fill-opacity="0.76"/>
<circle cx="384.91" cy="357.65" r="2.1" fill="#d62728" fill-opacity="0.76"/>
<circle cx="387.57" cy="357.65" r="2.1" fill="#d62728" fill-opacity="0.76"/>
<circle cx="390.23" cy="357.65" r="2.1" fill="#d62728" fill-opacity="0.76"/>
<circle cx="392.89" cy="357.65" r="2.1" fill="#d62728" fill-opacity="0.76"/>
<circle cx="395.54" cy="357.65" r="2.1" fill="#d62728" fill-opacity="0.76"/>
<circle cx="398.20" cy="357.65" r="2.1" fill="#d62728" fill-opacity="0.76"/>
<circle cx="400.86" cy="357.65" r="2.1" fill="#d62728" fill-opacity="0.76"/>
<circle cx="403.51" cy="357.65" r="2.1" fill="#d62728" fill-opacity="0.76"/>
<circle cx="406.17" cy="357.65" r="2.1" fill="#d62728" fill-opacity="0.76"/>
<circle cx="408.83" cy="357.65" r="2.1" fill="#d62728" fill-opacity="0.76"/>
<circle cx="411.49" cy="357.65" r="2.1" fill="#d62728" fill-opacity="0.76"/>
<circle cx="414.14" cy="357.65" r="2.1" fill="#d62728" fill-opacity="0.76"/>
<circle cx="416.80" cy="357.65" r="2.1" fill="#d62728" fill-opacity="0.76"/>
<circle cx="419.46" cy="357.65" r="2.1" fill="#d62728" fill-opacity="0.76"/>
<circle cx="422.11" cy="357.65" r="2.1" fill="#d62728" fill-opacity="0.76"/>
<circle cx="424.77" cy="357.65" r="2.1" fill="#d62728" fill-opacity="0.76"/>
<circle cx="427.43" cy="357.65" r="2.1" fill="#d62728" fill-opacity="0.76"/>
<circle cx="430.09" cy="357.65" r="2.1" fill="#d62728" fill-opacity="0.76"/>
<circle cx="432.74" cy="357.65" r="2.1" fill="#d62728" fill-opacity="0.76"/>
<circle cx="435.40" cy="357.65" r="2.1" fill="#d62728" fill-opacity="0.76"/>
<circle cx="438.06" cy="357.65" r="2.1" fill="#d62728" fill-opacity="0.76"/>
<circle cx="440.71" cy="357.65" r="2.1" fill="#d62728" fill-opacity="0.76"/>
<circle cx="443.37" cy="357.65" r="2.1" fill="#d62728" fill-opacity="0.76"/>
<circle cx="446.03" cy="357.65" r="2.1" fill="#d62728" fill-opacity="0.76"/>
<circle cx="448.69" cy="357.65" r="2.1" fill="#d62728" fill-opacity="0.76"/>
<circle cx="451.34" cy="357.65" r="2.1" fill="#d62728" fill-opacity="0.76"/>
<circle cx="454.00" cy="357.65" r="2.1" fill="#d62728" fill-opacity="0.76"/>
<circle cx="456.66" cy="357.65" r="2.1" fill="#d62728" fill-opacity="0.76"/>
<circle cx="459.31" cy="357.65" r="2.1" fill="#d62728" fill-opacity="0.76"/>
<circle cx="461.97" cy="357.65" r="2.1" fill="#d62728" fill-opacity="0.76"/>
<circle cx="464.63" cy="357.65" r="2.1" fill="#d62728" fill-opacity="0.76"/>
<circle cx="467.29" cy="357.65" r="2.1" fill="#d62728" fill-opacity="0.76"/>
<circle cx="469.94" cy="357.65" r="2.1" fill="#d62728" fill-opacity="0.76"/>
<circle cx="472.60" cy="357.65" r="2.1" fill="#d62728" fill-opacity="0.76"/>
<circle cx="475.26" cy="357.65" r="2.1" fill="#d62728" fill-opacity="0.76"/>
<circle cx="477.91" cy="357.65" r="2.1" fill="#d62728" fill-opacity="0.76"/>
<circle cx="480.57" cy="357.65" r="2.1" fill="#d62728" fill-opacity="0.76"/>
<circle cx="483.23" cy="357.65" r="2.1" fill="#d62728" fill-opacity="0.76"/>
<circle cx="485.89" cy="357.65" r="2.1" fill="#d62728" fill-opacity="0.76"/>
<circle cx="488.54" cy="357.65" r="2.1" fill="#d62728" fill-opacity="0.76"/>
<circle cx="491.20" cy="357.65" r="2.1" fill="#d62728" fill-opacity="0.76"/>
<circle cx="493.86" cy="357.65" r="2.1" fill="#d62728" fill-opacity="0.76"/>
<circle cx="496.51" cy="357.65" r="2.1" fill="#d62728" fill-opacity="0.76"/>
<circle cx="499.17" cy="357.65" r="2.1" fill="#d62728" fill-opacity="0.76"/>
<circle cx="501.83" cy="357.65" r="2.1" fill="#d62728" fill-opacity="0.76"/>
<circle cx="504.49" cy="357.65" r="2.1" fill="#d62728" fill-opacity="0.76"/>
<circle cx="507.14" cy="357.65" r="2.1" fill="#d62728" fill-opacity="0.76"/>
<circle cx="509.80" cy="357.65" r="2.1" fill="#d62728" fill-opacity="0.76"/>
<circle cx="512.46" cy="357.65" r="2.1" fill="#d62728" fill-opacity="0.76"/>
<circle cx="515.11" cy="357.65" r="2.1" fill="#d62728" fill-opacity="0.76"/>
<circle cx="517.77" cy="357.65" r="2.1" fill="#d62728" fill-opacity="0.76"/>
<circle cx="520.43" cy="357.65" r="2.1" fill="#d62728" fill-opacity="0.76"/>
<circle cx="523.09" cy="357.65" r="2.1" fill="#d62728" fill-opacity="0.76"/>
<circle cx="525.74" cy="357.65" r="2.1" fill="#d62728" fill-opacity="0.76"/>
<circle cx="528.40" cy="357.65" r="2.1" fill="#d62728" fill-opacity="0.76"/>
<circle cx="531.06" cy="357.65" r="2.1" fill="#d62728" fill-opacity="0.76"/>
<circle cx="533.71" cy="357.65" r="2.1" fill="#d62728" fill-opacity="0.76"/>
<circle cx="536.37" cy="357.65" r="2.1" fill="#d62728" fill-opacity="0.76"/>
<circle cx="539.03" cy="357.65" r="2.1" fill="#d62728" fill-opacity="0.76"/>
<circle cx="541.69" cy="357.65" r="2.1" fill="#d62728" fill-opacity="0.76"/>
<circle cx="544.34" cy="357.65" r="2.1" fill="#d62728" fill-opacity="0.76"/>
<circle cx="547.00" cy="357.65" r="2.1" fill="#d62728" fill-opacity="0.76"/>
<circle cx="549.66" cy="357.65" r="2.1" fill="#d62728" fill-opacity="0.76"/>
<circle cx="552.31" cy="357.65" r="2.1" fill="#d62728" fill-opacity="0.76"/>
<circle cx="554.97" cy="357.65" r="2.1" fill="#d62728" fill-opacity="0.76"/>
<circle cx="557.63" cy="357.65" r="2.1" fill="#d62728" fill-opacity="0.76"/>
<circle cx="560.29" cy="357.65" r="2.1" fill="#d62728" fill-opacity="0.76"/>
<circle cx="562.94" cy="357.65" r="2.1" fill="#d62728" fill-opacity="0.76"/>
<circle cx="565.60" cy="357.65" r="2.1" fill="#d62728" fill-opacity="0.76"/>
<circle cx="568.26" cy="357.65" r="2.1" fill="#d62728" fill-opacity="0.76"/>
<circle cx="570.91" cy="357.65" r="2.1" fill="#d62728" fill-opacity="0.76"/>
<circle cx="573.57" cy="357.65" r="2.1" fill="#d62728" fill-opacity="0.76"/>
<circle cx="576.23" cy="357.65" r="2.1" fill="#d62728" fill-opacity="0.76"/>
<circle cx="578.89" cy="357.65" r="2.1" fill="#d62728" fill-opacity="0.76"/>
<circle cx="581.54" cy="357.65" r="2.1" fill="#d62728" fill-opacity="0.76"/>
<circle cx="584.20" cy="357.65" r="2.1" fill="#d62728" fill-opacity="0.76"/>
<circle cx="586.86" cy="357.65" r="2.1" fill="#d62728" fill-opacity="0.76"/>
<circle cx="589.51" cy="357.65" r="2.1" fill="#d62728" fill-opacity="0.76"/>
<circle cx="592.17" cy="357.65" r="2.1" fill="#d62728" fill-opacity="0.76"/>
<circle cx="594.83" cy="357.65" r="2.1" fill="#d62728" fill-opacity="0.76"/>
<circle cx="597.49" cy="357.65" r="2.1" fill="#d62728" fill-opacity="0.76"/>
<circle cx="600.14" cy="357.65" r="2.1" fill="#d62728" fill-opacity="0.76"/>
<circle cx="602.80" cy="357.65" r="2.1" fill="#d62728" fill-opacity="0.76"/>
<circle cx="605.46" cy="357.65" r="2.1" fill="#d62728" fill-opacity="0.76"/>
<circle cx="608.11" cy="357.65" r="2.1" fill="#d62728" fill-opacity="0.76"/>
<circle cx="610.77" cy="357.65" r="2.1" fill="#d62728" fill-opacity="0.76"/>
<circle cx="613.43" cy="357.65" r="2.1" fill="#d62728" fill-opacity="0.76"/>
<circle cx="616.09" cy="357.65" r="2.1" fill="#d62728" fill-opacity="0.76"/>
<circle cx="618.74" cy="357.65" r="2.1" fill="#d62728" fill-opacity="0.76"/>
<circle cx="621.40" cy="357.65" r="2.1" fill="#d62728" fill-opacity="0.76"/>
<circle cx="624.06" cy="357.65" r="2.1" fill="#d62728" fill-opacity="0.76"/>
<circle cx="626.71" cy="357.65" r="2.1" fill="#d62728" fill-opacity="0.76"/>
<circle cx="629.37" cy="357.65" r="2.1" fill="#d62728" fill-opacity="0.76"/>
<circle cx="632.03" cy="357.65" r="2.1" fill="#d62728" fill-opacity="0.76"/>
<circle cx="634.69" cy="357.65" r="2.1" fill="#d62728" fill-opacity="0.76"/>
<circle cx="637.34" cy="357.65" r="2.1" fill="#d62728" fill-opacity="0.76"/>
<circle cx="640.00" cy="357.65" r="2.1" fill="#d62728" fill-opacity="0.76"/>
<circle cx="642.66" cy="357.65" r="2.1" fill="#d62728" fill-opacity="0.76"/>
<circle cx="645.31" cy="357.65" r="2.1" fill="#d62728" fill-opacity="0.76"/>
<circle cx="647.97" cy="357.65" r="2.1" fill="#d62728" fill-opacity="0.76"/>
<circle cx="650.63" cy="357.65" r="2.1" fill="#d62728" fill-opacity="0.76"/>
<circle cx="653.29" cy="357.65" r="2.1" fill="#d62728" fill-opacity="0.76"/>
<circle cx="655.94" cy="357.65" r="2.1" fill="#d62728" fill-opacity="0.76"/>
<circle cx="658.60" cy="357.65" r="2.1" fill="#d62728" fill-opacity="0.76"/>
<circle cx="661.26" cy="357.65" r="2.1" fill="#d62728" fill-opacity="0.76"/>
<circle cx="663.91" cy="357.65" r="2.1" fill="#d62728" fill-opacity="0.76"/>
<circle cx="666.57" cy="357.65" r="2.1" fill="#d62728" fill-opacity="0.76"/>
<circle cx="669.23" cy="357.65" r="2.1" fill="#d62728" fill-opacity="0.76"/>
<circle cx="671.89" cy="357.65" r="2.1" fill="#d62728" fill-opacity="0.76"/>
<circle cx="674.54" cy="357.65" r="2.1" fill="#d62728" fill-opacity="0.76"/>
<circle cx="677.20" cy="357.65" r="2.1" fill="#d62728" fill-opacity="0.76"/>
<circle cx="679.86" cy="357.65" r="2.1" fill="#d62728" fill-opacity="0.76"/>
<circle cx="682.51" cy="357.65" r="2.1" fill="#d62728" fill-opacity="0.76"/>
<circle cx="685.17" cy="357.65" r="2.1" fill="#d62728" fill-opacity="0.76"/>
<circle cx="687.83" cy="357.65" r="2.1" fill="#d62728" fill-opacity="0.76"/>
<circle cx="690.49" cy="357.65" r="2.1" fill="#d62728" fill-opacity="0.76"/>
<circle cx="693.14" cy="357.65" r="2.1" fill="#d62728" fill-opacity="0.76"/>
<circle cx="695.80" cy="357.65" r="2.1" fill="#d62728" fill-opacity="0.76"/>
<circle cx="698.46" cy="357.65" r="2.1" fill="#d62728" fill-opacity="0.76"/>
<circle cx="701.11" cy="357.65" r="2.1" fill="#d62728" fill-opacity="0.76"/>
<circle cx="703.77" cy="357.65" r="2.1" fill="#d62728" fill-opacity="0.76"/>
<circle cx="706.43" cy="357.65" r="2.1" fill="#d62728" fill-opacity="0.76"/>
<circle cx="709.09" cy="357.65" r="2.1" fill="#d62728" fill-opacity="0.76"/>
<circle cx="711.74" cy="357.65" r="2.1" fill="#d62728" fill-opacity="0.76"/>
<circle cx="714.40" cy="357.65" r="2.1" fill="#d62728" fill-opacity="0.76"/>
<circle cx="717.06" cy="357.65" r="2.1" fill="#d62728" fill-opacity="0.76"/>
<circle cx="719.71" cy="357.65" r="2.1" fill="#d62728" fill-opacity="0.76"/>
<circle cx="722.37" cy="357.65" r="2.1" fill="#d62728" fill-opacity="0.76"/>
<circle cx="725.03" cy="357.65" r="2.1" fill="#d62728" fill-opacity="0.76"/>
<circle cx="727.69" cy="357.65" r="2.1" fill="#d62728" fill-opacity="0.76"/>
<circle cx="730.34" cy="357.65" r="2.1" fill="#d62728" fill-opacity="0.76"/>
<circle cx="733.00" cy="357.65" r="2.1" fill="#d62728" fill-opacity="0.76"/>
<circle cx="735.66" cy="357.65" r="2.1" fill="#d62728" fill-opacity="0.76"/>
<circle cx="738.31" cy="357.65" r="2.1" fill="#d62728" fill-opacity="0.76"/>
<circle cx="740.97" cy="357.65" r="2.1" fill="#d62728" fill-opacity="0.76"/>
<circle cx="743.63" cy="357.65" r="2.1" fill="#d62728" fill-opacity="0.76"/>
<circle cx="746.29" cy="357.65" r="2.1" fill="#d62728" fill-opacity="0.76"/>
<circle cx="748.94" cy="357.65" r="2.1" fill="#d62728" fill-opacity="0.76"/>
<circle cx="751.60" cy="357.65" r="2.1" fill="#d62728" fill-opacity="0.76"/>
<circle cx="754.26" cy="357.65" r="2.1" fill="#d62728" fill-opacity="0.76"/>
<circle cx="756.91" cy="357.65" r="2.1" fill="#d62728" fill-opacity="0.76"/>
<circle cx="759.57" cy="357.65" r="2.1" fill="#d62728" fill-opacity="0.76"/>
<circle cx="762.23" cy="357.65" r="2.1" fill="#d62728" fill-opacity="0.76"/>
<circle cx="764.89" cy="357.65" r="2.1" fill="#d62728" fill-opacity="0.76"/>
<circle cx="767.54" cy="357.65" r="2.1" fill="#d62728" fill-opacity="0.76"/>
<circle cx="770.20" cy="357.65" r="2.1" fill="#d62728" fill-opacity="0.76"/>
<circle cx="772.86" cy="357.65" r="2.1" fill="#d62728" fill-opacity="0.76"/>
<circle cx="775.51" cy="357.65" r="2.1" fill="#d62728" fill-opacity="0.76"/>
<circle cx="778.17" cy="357.65" r="2.1" fill="#d62728" fill-opacity="0.76"/>
<circle cx="780.83" cy="357.65" r="2.1" fill="#d62728" fill-opacity="0.76"/>
<circle cx="783.49" cy="357.65" r="2.1" fill="#d62728" fill-opacity="0.76"/>
<circle cx="786.14" cy="357.65" r="2.1" fill="#d62728" fill-opacity="0.76"/>
<circle cx="788.80" cy="357.65" r="2.1" fill="#d62728" fill-opacity="0.76"/>
<circle cx="791.46" cy="357.65" r="2.1" fill="#d62728" fill-opacity="0.76"/>
<circle cx="794.11" cy="357.65" r="2.1" fill="#d62728" fill-opacity="0.76"/>
<circle cx="796.77" cy="357.65" r="2.1" fill="#d62728" fill-opacity="0.76"/>
<circle cx="799.43" cy="357.65" r="2.1" fill="#d62728" fill-opacity="0.76"/>
<circle cx="802.09" cy="357.65" r="2.1" fill="#d62728" fill-opacity="0.76"/>
<circle cx="804.74" cy="357.65" r="2.1" fill="#d62728" fill-opacity="0.76"/>
<circle cx="807.40" cy="357.65" r="2.1" fill="#d62728" fill-opacity="0.76"/>
<circle cx="810.06" cy="357.65" r="2.1" fill="#d62728" fill-opacity="0.76"/>
<circle cx="812.71" cy="357.65" r="2.1" fill="#d62728" fill-opacity="0.76"/>
<circle cx="815.37" cy="357.65" r="2.1" fill="#d62728" fill-opacity="0.76"/>
<circle cx="818.03" cy="357.65" r="2.1" fill="#d62728" fill-opacity="0.76"/>
<circle cx="820.69" cy="357.65" r="2.1" fill="#d62728" fill-opacity="0.76"/>
<circle cx="823.34" cy="357.65" r="2.1" fill="#d62728" fill-opacity="0.76"/>
<circle cx="826.00" cy="357.65" r="2.1" fill="#d62728" fill-opacity="0.76"/>
<circle cx="828.66" cy="357.65" r="2.1" fill="#d62728" fill-opacity="0.76"/>
<circle cx="831.31" cy="357.65" r="2.1" fill="#d62728" fill-opacity="0.76"/>
<circle cx="833.97" cy="357.65" r="2.1" fill="#d62728" fill-opacity="0.76"/>
<circle cx="836.63" cy="357.65" r="2.1" fill="#d62728" fill-opacity="0.76"/>
<circle cx="839.29" cy="357.65" r="2.1" fill="#d62728" fill-opacity="0.76"/>
<circle cx="841.94" cy="357.65" r="2.1" fill="#d62728" fill-opacity="0.76"/>
<circle cx="844.60" cy="357.65" r="2.1" fill="#d62728" fill-opacity="0.76"/>
<circle cx="847.26" cy="357.65" r="2.1" fill="#d62728" fill-opacity="0.76"/>
<circle cx="849.91" cy="357.65" r="2.1" fill="#d62728" fill-opacity="0.76"/>
<circle cx="852.57" cy="357.65" r="2.1" fill="#d62728" fill-opacity="0.76"/>
<circle cx="855.23" cy="357.65" r="2.1" fill="#d62728" fill-opacity="0.76"/>
<circle cx="857.89" cy="357.65" r="2.1" fill="#d62728" fill-opacity="0.76"/>
<circle cx="860.54" cy="357.65" r="2.1" fill="#d62728" fill-opacity="0.76"/>
<circle cx="863.20" cy="357.65" r="2.1" fill="#d62728" fill-opacity="0.76"/>
<circle cx="865.86" cy="357.65" r="2.1" fill="#d62728" fill-opacity="0.76"/>
<circle cx="868.51" cy="357.65" r="2.1" fill="#d62728" fill-opacity="0.76"/>
<circle cx="871.17" cy="357.65" r="2.1" fill="#d62728" fill-opacity="0.76"/>
<circle cx="873.83" cy="357.65" r="2.1" fill="#d62728" fill-opacity="0.76"/>
<circle cx="876.49" cy="357.65" r="2.1" fill="#d62728" fill-opacity="0.76"/>
<circle cx="879.14" cy="357.65" r="2.1" fill="#d62728" fill-opacity="0.76"/>
<circle cx="881.80" cy="357.65" r="2.1" fill="#d62728" fill-opacity="0.76"/>
<circle cx="884.46" cy="357.65" r="2.1" fill="#d62728" fill-opacity="0.76"/>
<circle cx="887.11" cy="357.65" r="2.1" fill="#d62728" fill-opacity="0.76"/>
<circle cx="889.77" cy="357.65" r="2.1" fill="#d62728" fill-opacity="0.76"/>
<circle cx="892.43" cy="357.65" r="2.1" fill="#d62728" fill-opacity="0.76"/>
<circle cx="895.09" cy="357.65" r="2.1" fill="#d62728" fill-opacity="0.76"/>
<circle cx="897.74" cy="357.65" r="2.1" fill="#d62728" fill-opacity="0.76"/>
<circle cx="900.40" cy="357.65" r="2.1" fill="#d62728" fill-opacity="0.76"/>
<circle cx="903.06" cy="357.65" r="2.1" fill="#d62728" fill-opacity="0.76"/>
<circle cx="905.71" cy="357.65" r="2.1" fill="#d62728" fill-opacity="0.76"/>
<circle cx="908.37" cy="357.65" r="2.1" fill="#d62728" fill-opacity="0.76"/>
<circle cx="911.03" cy="357.65" r="2.1" fill="#d62728" fill-opacity="0.76"/>
<circle cx="913.69" cy="357.65" r="2.1" fill="#d62728" fill-opacity="0.76"/>
<circle cx="916.34" cy="357.65" r="2.1" fill="#d62728" fill-opacity="0.76"/>
<circle cx="919.00" cy="357.65" r="2.1" fill="#d62728" fill-opacity="0.76"/>
<circle cx="921.66" cy="357.65" r="2.1" fill="#d62728" fill-opacity="0.76"/>
<circle cx="924.31" cy="357.65" r="2.1" fill="#d62728" fill-opacity="0.76"/>
<circle cx="926.97" cy="357.65" r="2.1" fill="#d62728" fill-opacity="0.76"/>
<circle cx="929.63" cy="357.65" r="2.1" fill="#d62728" fill-opacity="0.76"/>
<circle cx="932.29" cy="357.65" r="2.1" fill="#d62728" fill-opacity="0.76"/>
<circle cx="934.94" cy="357.65" r="2.1" fill="#d62728" fill-opacity="0.76"/>
<circle cx="937.60" cy="357.65" r="2.1" fill="#d62728" fill-opacity="0.76"/>
<circle cx="940.26" cy="357.65" r="2.1" fill="#d62728" fill-opacity="0.76"/>
<circle cx="942.91" cy="357.65" r="2.1" fill="#d62728" fill-opacity="0.76"/>
<circle cx="945.57" cy="357.65" r="2.1" fill="#d62728" fill-opacity="0.76"/>
<circle cx="948.23" cy="357.65" r="2.1" fill="#d62728" fill-opacity="0.76"/>
<circle cx="950.89" cy="357.65" r="2.1" fill="#d62728" fill-opacity="0.76"/>
<circle cx="953.54" cy="357.65" r="2.1" fill="#d62728" fill-opacity="0.76"/>
<circle cx="956.20" cy="357.65" r="2.1" fill="#d62728" fill-opacity="0.76"/>
<circle cx="958.86" cy="357.65" r="2.1" fill="#d62728" fill-opacity="0.76"/>
<circle cx="961.51" cy="357.65" r="2.1" fill="#d62728" fill-opacity="0.76"/>
<circle cx="964.17" cy="357.65" r="2.1" fill="#d62728" fill-opacity="0.76"/>
<circle cx="966.83" cy="357.65" r="2.1" fill="#d62728" fill-opacity="0.76"/>
<circle cx="969.49" cy="357.65" r="2.1" fill="#d62728" fill-opacity="0.76"/>
<circle cx="972.14" cy="357.65" r="2.1" fill="#d62728" fill-opacity="0.76"/>
<circle cx="974.80" cy="357.65" r="2.1" fill="#d62728" fill-opacity="0.76"/>
<circle cx="977.46" cy="357.65" r="2.1" fill="#d62728" fill-opacity="0.76"/>
<circle cx="980.11" cy="357.65" r="2.1" fill="#d62728" fill-opacity="0.76"/>
<circle cx="982.77" cy="357.65" r="2.1" fill="#d62728" fill-opacity="0.76"/>
<circle cx="985.43" cy="357.65" r="2.1" fill="#d62728" fill-opacity="0.76"/>
<circle cx="988.09" cy="357.65" r="2.1" fill="#d62728" fill-opacity="0.76"/>
<circle cx="990.74" cy="357.65" r="2.1" fill="#d62728" fill-opacity="0.76"/>
<circle cx="993.40" cy="357.65" r="2.1" fill="#d62728" fill-opacity="0.76"/>
<circle cx="996.06" cy="357.65" r="2.1" fill="#d62728" fill-opacity="0.76"/>
<circle cx="998.71" cy="357.65" r="2.1" fill="#d62728" fill-opacity="0.76"/>
<circle cx="1001.37" cy="357.65" r="2.1" fill="#d62728" fill-opacity="0.76"/>
<circle cx="1004.03" cy="357.65" r="2.1" fill="#d62728" fill-opacity="0.76"/>
<circle cx="1006.69" cy="357.65" r="2.1" fill="#d62728" fill-opacity="0.76"/>
<circle cx="1009.34" cy="357.65" r="2.1" fill="#d62728" fill-opacity="0.76"/>
<circle cx="1012.00" cy="357.65" r="2.1" fill="#d62728" fill-opacity="0.76"/>
<circle cx="106" cy="72" r="4" fill="#d62728"/>
<text x="126" y="76" font-family="Arial, sans-serif" font-size="12" fill="#222">mobile_to_parent</text>
<line x1="180.31" x2="180.31" y1="54" y2="486" stroke="#111" stroke-dasharray="5 4"/>
<text x="185.31" y="68" font-family="Arial, sans-serif" font-size="11" fill="#111">switch</text>
<text x="1012" y="46" text-anchor="end" font-family="Arial, sans-serif" font-size="11" fill="#555">final parent: router_c</text>
</svg>
