<svg xmlns="http://www.w3.org/2000/svg" width="1180" height="560" viewBox="0 0 1180 560">
<rect width="100%" height="100%" fill="#ffffff"/>
<text x="84" y="30" font-family="Arial, sans-serif" font-size="20" font-weight="700">Extended three-router 0 dBm end-dwell RSS by arm</text>
<text x="84" y="50" font-family="Arial, sans-serif" font-size="12" fill="#555">Mean ED-to-parent reply RSS at ED during end dwell, model-derived at ping event positions</text>
<line x1="84" x2="1150" y1="432.00" y2="432.00" stroke="#e5e5e5"/>
<text x="74" y="436.00" text-anchor="end" font-family="Arial, sans-serif" font-size="11" fill="#555">-99</text>
<line x1="84" x2="1150" y1="338.50" y2="338.50" stroke="#e5e5e5"/>
<text x="74" y="342.50" text-anchor="end" font-family="Arial, sans-serif" font-size="11" fill="#555">-85</text>
<line x1="84" x2="1150" y1="245.00" y2="245.00" stroke="#e5e5e5"/>
<text x="74" y="249.00" text-anchor="end" font-family="Arial, sans-serif" font-size="11" fill="#555">-70</text>
<line x1="84" x2="1150" y1="151.50" y2="151.50" stroke="#e5e5e5"/>
<text x="74" y="155.50" text-anchor="end" font-family="Arial, sans-serif" font-size="11" fill="#555">-55</text>
<line x1="84" x2="1150" y1="58.00" y2="58.00" stroke="#e5e5e5"/>
<text x="74" y="62.00" text-anchor="end" font-family="Arial, sans-serif" font-size="11" fill="#555">-40</text>
<rect x="84" y="58" width="1066" height="374" fill="none" stroke="#222"/>
<text x="22" y="245.00" transform="rotate(-90 22,245.00)" text-anchor="middle" font-family="Arial, sans-serif" font-size="13">RSS (dBm)</text>
<circle cx="172.83" cy="399.06" r="6.2" fill="#d62728" fill-opacity="0.86"/>
<text x="172.83" y="390.06" text-anchor="middle" font-family="Arial, sans-serif" font-size="10" fill="#222">-94.2</text>
<text x="172.83" y="462" transform="rotate(-25 172.83,462)" text-anchor="end" font-family="Arial, sans-serif" font-size="11" fill="#222">MED med-PPS off</text>
<circle cx="350.50" cy="372.25" r="6.2" fill="#d62728" fill-opacity="0.86"/>
<text x="350.50" y="363.25" text-anchor="middle" font-family="Arial, sans-serif" font-size="10" fill="#222">-89.9</text>
<text x="350.50" y="462" transform="rotate(-25 350.50,462)" text-anchor="end" font-family="Arial, sans-serif" font-size="11" fill="#222">MED med-PPS on</text>
<circle cx="528.17" cy="372.25" r="6.2" fill="#d62728" fill-opacity="0.86"/>
<text x="528.17" y="363.25" text-anchor="middle" font-family="Arial, sans-serif" font-size="10" fill="#222">-89.9</text>
<text x="528.17" y="462" transform="rotate(-25 528.17,462)" text-anchor="end" font-family="Arial, sans-serif" font-size="11" fill="#222">FED fed-PPS off</text>
<circle cx="705.83" cy="342.61" r="6.2" fill="#d62728" fill-opacity="0.86"/>
<text x="705.83" y="333.61" text-anchor="middle" font-family="Arial, sans-serif" font-size="10" fill="#222">-85.2</text>
<text x="705.83" y="462" transform="rotate(-25 705.83,462)" text-anchor="end" font-family="Arial, sans-serif" font-size="11" fill="#222">FED fed-PPS on</text>
<circle cx="883.50" cy="406.83" r="6.2" fill="#d62728" fill-opacity="0.86"/>
<text x="883.50" y="397.83" text-anchor="middle" font-family="Arial, sans-serif" font-size="10" fill="#222">-95.4</text>
<text x="883.50" y="462" transform="rotate(-25 883.50,462)" text-anchor="end" font-family="Arial, sans-serif" font-size="11" fill="#222">SED sed-PPS off</text>
<circle cx="1061.17" cy="352.07" r="6.2" fill="#d62728" fill-opacity="0.86"/>
<text x="1061.17" y="343.07" text-anchor="middle" font-family="Arial, sans-serif" font-size="10" fill="#222">-86.7</text>
<text x="1061.17" y="462" transform="rotate(-25 1061.17,462)" text-anchor="end" font-family="Arial, sans-serif" font-size="11" fill="#222">SED sed-PPS on</text>
<circle cx="105" cy="72" r="5.5" fill="#d62728"/>
<text x="122" y="76" font-family="Arial, sans-serif" font-size="12">mobile -> current parent reply at ED</text>
</svg>
