<svg xmlns="http://www.w3.org/2000/svg" width="1180" height="560" viewBox="0 0 1180 560">
<rect width="100%" height="100%" fill="#ffffff"/>
<text x="84" y="30" font-family="Arial, sans-serif" font-size="20" font-weight="700">Simple PPS matrix end-dwell parent-ping RSS</text>
<text x="84" y="50" font-family="Arial, sans-serif" font-size="12" fill="#555">Mean ED-to-parent reply RSS at ED during end dwell, model-derived at ping event positions</text>
<line x1="84" x2="1150" y1="432.00" y2="432.00" stroke="#e5e5e5"/>
<text x="74" y="436.00" text-anchor="end" font-family="Arial, sans-serif" font-size="11" fill="#555">-90</text>
<line x1="84" x2="1150" y1="338.50" y2="338.50" stroke="#e5e5e5"/>
<text x="74" y="342.50" text-anchor="end" font-family="Arial, sans-serif" font-size="11" fill="#555">-78</text>
<line x1="84" x2="1150" y1="245.00" y2="245.00" stroke="#e5e5e5"/>
<text x="74" y="249.00" text-anchor="end" font-family="Arial, sans-serif" font-size="11" fill="#555">-65</text>
<line x1="84" x2="1150" y1="151.50" y2="151.50" stroke="#e5e5e5"/>
<text x="74" y="155.50" text-anchor="end" font-family="Arial, sans-serif" font-size="11" fill="#555">-52</text>
<line x1="84" x2="1150" y1="58.00" y2="58.00" stroke="#e5e5e5"/>
<text x="74" y="62.00" text-anchor="end" font-family="Arial, sans-serif" font-size="11" fill="#555">-40</text>
<rect x="84" y="58" width="1066" height="374" fill="none" stroke="#222"/>
<text x="22" y="245.00" transform="rotate(-90 22,245.00)" text-anchor="middle" font-family="Arial, sans-serif" font-size="13">RSS (dBm)</text>
<rect x="147.96" y="261.78" width="49.75" height="170.22" fill="#d62728"/>
<text x="172.83" y="256.78" text-anchor="middle" font-family="Arial, sans-serif" font-size="10" fill="#222">-67.2</text>
<text x="172.83" y="462" transform="rotate(-25 172.83,462)" text-anchor="end" font-family="Arial, sans-serif" font-size="11" fill="#222">MED med-PPS off</text>
<rect x="325.63" y="227.02" width="49.75" height="204.98" fill="#d62728"/>
<text x="350.50" y="222.02" text-anchor="middle" font-family="Arial, sans-serif" font-size="10" fill="#222">-62.6</text>
<text x="350.50" y="462" transform="rotate(-25 350.50,462)" text-anchor="end" font-family="Arial, sans-serif" font-size="11" fill="#222">MED med-PPS on</text>
<rect x="503.29" y="261.19" width="49.75" height="170.81" fill="#d62728"/>
<text x="528.17" y="256.19" text-anchor="middle" font-family="Arial, sans-serif" font-size="10" fill="#222">-67.2</text>
<text x="528.17" y="462" transform="rotate(-25 528.17,462)" text-anchor="end" font-family="Arial, sans-serif" font-size="11" fill="#222">FED fed-PPS off</text>
<rect x="680.96" y="152.12" width="49.75" height="279.88" fill="#d62728"/>
<text x="705.83" y="147.12" text-anchor="middle" font-family="Arial, sans-serif" font-size="10" fill="#222">-52.6</text>
<text x="705.83" y="462" transform="rotate(-25 705.83,462)" text-anchor="end" font-family="Arial, sans-serif" font-size="11" fill="#222">FED fed-PPS on</text>
<rect x="858.63" y="208.88" width="49.75" height="223.12" fill="#d62728"/>
<text x="883.50" y="203.88" text-anchor="middle" font-family="Arial, sans-serif" font-size="10" fill="#222">-60.2</text>
<text x="883.50" y="462" transform="rotate(-25 883.50,462)" text-anchor="end" font-family="Arial, sans-serif" font-size="11" fill="#222">SED sed-PPS off</text>
<rect x="1036.29" y="261.78" width="49.75" height="170.22" fill="#d62728"/>
<text x="1061.17" y="256.78" text-anchor="middle" font-family="Arial, sans-serif" font-size="10" fill="#222">-67.2</text>
<text x="1061.17" y="462" transform="rotate(-25 1061.17,462)" text-anchor="end" font-family="Arial, sans-serif" font-size="11" fill="#222">SED sed-PPS on</text>
<rect x="96" y="66" width="18" height="12" fill="#d62728"/>
<text x="122" y="76" font-family="Arial, sans-serif" font-size="12">mobile -> current parent reply at ED</text>
</svg>
