<svg xmlns="http://www.w3.org/2000/svg" width="1180" height="560" viewBox="0 0 1180 560">
<rect width="100%" height="100%" fill="#ffffff"/>
<text x="84" y="30" font-family="Arial, sans-serif" font-size="20" font-weight="700">Simple PPS matrix end-dwell parent-ping RSS</text>
<text x="84" y="50" font-family="Arial, sans-serif" font-size="12" fill="#555">Mean ED-to-parent reply RSS at ED during end dwell, model-derived at ping event positions</text>
<line x1="84" x2="1150" y1="432.00" y2="432.00" stroke="#e5e5e5"/>
<text x="74" y="436.00" text-anchor="end" font-family="Arial, sans-serif" font-size="11" fill="#555">-90</text>
<line x1="84" x2="1150" y1="338.50" y2="338.50" stroke="#e5e5e5"/>
<text x="74" y="342.50" text-anchor="end" font-family="Arial, sans-serif" font-size="11" fill="#555">-78</text>
<line x1="84" x2="1150" y1="245.00" y2="245.00" stroke="#e5e5e5"/>
<text x="74" y="249.00" text-anchor="end" font-family="Arial, sans-serif" font-size="11" fill="#555">-65</text>
<line x1="84" x2="1150" y1="151.50" y2="151.50" stroke="#e5e5e5"/>
<text x="74" y="155.50" text-anchor="end" font-family="Arial, sans-serif" font-size="11" fill="#555">-52</text>
<line x1="84" x2="1150" y1="58.00" y2="58.00" stroke="#e5e5e5"/>
<text x="74" y="62.00" text-anchor="end" font-family="Arial, sans-serif" font-size="11" fill="#555">-40</text>
<rect x="84" y="58" width="1066" height="374" fill="none" stroke="#222"/>
<text x="22" y="245.00" transform="rotate(-90 22,245.00)" text-anchor="middle" font-family="Arial, sans-serif" font-size="13">RSS (dBm)</text>
<rect x="147.96" y="232.60" width="49.75" height="199.40" fill="#d62728"/>
<text x="172.83" y="227.60" text-anchor="middle" font-family="Arial, sans-serif" font-size="10" fill="#222">-63.3</text>
<text x="172.83" y="462" transform="rotate(-25 172.83,462)" text-anchor="end" font-family="Arial, sans-serif" font-size="11" fill="#222">MED med-PPS off</text>
<rect x="325.63" y="262.06" width="49.75" height="169.94" fill="#d62728"/>
<text x="350.50" y="257.06" text-anchor="middle" font-family="Arial, sans-serif" font-size="10" fill="#222">-67.3</text>
<text x="350.50" y="462" transform="rotate(-25 350.50,462)" text-anchor="end" font-family="Arial, sans-serif" font-size="11" fill="#222">MED med-PPS on</text>
<rect x="503.29" y="261.13" width="49.75" height="170.87" fill="#d62728"/>
<text x="528.17" y="256.13" text-anchor="middle" font-family="Arial, sans-serif" font-size="10" fill="#222">-67.2</text>
<text x="528.17" y="462" transform="rotate(-25 528.17,462)" text-anchor="end" font-family="Arial, sans-serif" font-size="11" fill="#222">FED fed-PPS off</text>
<rect x="680.96" y="152.97" width="49.75" height="279.03" fill="#d62728"/>
<text x="705.83" y="147.97" text-anchor="middle" font-family="Arial, sans-serif" font-size="10" fill="#222">-52.7</text>
<text x="705.83" y="462" transform="rotate(-25 705.83,462)" text-anchor="end" font-family="Arial, sans-serif" font-size="11" fill="#222">FED fed-PPS on</text>
<rect x="858.63" y="265.76" width="49.75" height="166.24" fill="#d62728"/>
<text x="883.50" y="260.76" text-anchor="middle" font-family="Arial, sans-serif" font-size="10" fill="#222">-67.8</text>
<text x="883.50" y="462" transform="rotate(-25 883.50,462)" text-anchor="end" font-family="Arial, sans-serif" font-size="11" fill="#222">SED sed-PPS off</text>
<rect x="1036.29" y="278.84" width="49.75" height="153.16" fill="#d62728"/>
<text x="1061.17" y="273.84" text-anchor="middle" font-family="Arial, sans-serif" font-size="10" fill="#222">-69.5</text>
<text x="1061.17" y="462" transform="rotate(-25 1061.17,462)" text-anchor="end" font-family="Arial, sans-serif" font-size="11" fill="#222">SED sed-PPS on</text>
<rect x="96" y="66" width="18" height="12" fill="#d62728"/>
<text x="122" y="76" font-family="Arial, sans-serif" font-size="12">mobile -> current parent reply at ED</text>
</svg>
